<svg xmlns="http://www.w3.org/2000/svg" viewBox="0 0 434 214" width="434" height="214" role="img" aria-label="CodzHub wordmark">
  <g transform="translate(22,28)">
<g transform="translate(0.000,0.000)">
<path d="M355 -25Q202 -25 116.0 55.0Q30 135 30 278Q30 376 64.5 457.5Q99 539 160.5 599.5Q222 660 306.0 693.0Q390 726 489 726Q584 726 640.0 692.0Q696 658 696 599Q696 552 663.0 521.5Q630 491 579 491Q531 491 490.0 517.5Q449 544 425 594Q375 575 334.5 527.0Q294 479 271.0 413.5Q248 348 248 274Q248 183 279.5 132.0Q311 81 367 81Q412 81 448.0 105.5Q484 130 506.5 172.0Q529 214 531 265Q595 265 629.5 241.5Q664 218 664 171Q664 116 622.5 72.0Q581 28 511.0 1.5Q441 -25 355 -25Z" fill="#0B1020" transform="translate(0.000,103.669) scale(0.0770771,-0.0770771)"/>
<path d="M319 -25Q235 -25 173.5 7.5Q112 40 78.5 99.0Q45 158 45 238Q45 318 73.0 384.0Q101 450 152.0 498.5Q203 547 272.5 573.5Q342 600 425 600Q442 600 458.5 598.5Q475 597 496 592Q501 576 503.5 554.0Q506 532 505 509Q425 509 366.0 472.0Q307 435 275.0 373.0Q243 311 243 236Q243 151 272.5 114.5Q302 78 351 78Q390 78 420.0 98.5Q450 119 470.0 158.0Q490 197 496 251Q458 272 439.0 304.0Q420 336 420 379Q420 420 437.0 453.0Q454 486 483.5 505.0Q513 524 548 524Q607 524 643.0 477.5Q679 431 679 357Q679 277 651.5 207.5Q624 138 574.5 86.0Q525 34 459.5 4.5Q394 -25 319 -25Z" fill="#0B1020" transform="translate(54.187,103.669) scale(0.0770771,-0.0770771)"/>
<path d="M226 -25Q170 -25 127.5 4.0Q85 33 62.0 86.0Q39 139 39 210Q39 291 68.0 358.0Q97 425 150.0 473.5Q203 522 276.0 548.5Q349 575 438 575Q480 575 517 567Q523 551 526.0 529.0Q529 507 529 484Q469 484 416.0 466.0Q363 448 323.0 415.5Q283 383 260.0 340.5Q237 298 237 249Q237 200 257.5 173.5Q278 147 315 147Q341 147 366.5 161.0Q392 175 414.5 201.0Q437 227 453 262L446 119L425 128Q397 56 344.0 15.5Q291 -25 226 -25ZM549 -25Q488 -25 462.0 10.5Q436 46 436 119Q436 138 440.0 172.0Q444 206 450.5 250.0Q457 294 465.5 343.0Q474 392 483.0 442.0Q492 492 500.5 538.5Q509 585 515 622L459 702Q501 733 550.5 754.0Q600 775 646 775Q693 775 712.0 758.5Q731 742 731 704Q731 674 722.0 628.0Q713 582 700.0 524.5Q687 467 673.5 402.0Q660 337 651.0 268.5Q642 200 642 132Q642 82 651.0 61.5Q660 41 673 24Q645 -1 611.5 -13.0Q578 -25 549 -25Z" fill="#0B1020" transform="translate(108.606,103.669) scale(0.0770771,-0.0770771)"/>
<path d="M263 90 73 128 329 428 562 453ZM422 -25Q365 -25 316.5 -10.0Q268 5 215 25Q185 2 159.0 -8.0Q133 -18 104 -18Q58 -18 34.0 11.5Q10 41 10 78Q10 108 25.5 136.5Q41 165 72.0 184.0Q103 203 151 203Q175 203 210.0 194.0Q245 185 284.0 173.0Q323 161 359.0 152.0Q395 143 422 143L558 196Q567 173 573.0 148.5Q579 124 579 97Q579 61 557.5 33.5Q536 6 500.5 -9.5Q465 -25 422 -25ZM322 375Q224 376 170.5 391.5Q117 407 96.0 438.0Q75 469 75 514Q75 533 78.0 553.5Q81 574 86 605Q119 591 159.5 578.0Q200 565 241.0 554.5Q282 544 318.0 537.5Q354 531 379 530Q395 560 426.0 580.0Q457 600 494 600Q547 600 573.0 573.5Q599 547 599 506Q599 464 576.0 438.0Q553 412 513.0 398.5Q473 385 424.0 380.0Q375 375 322 375Z" fill="#0B1020" transform="translate(165.490,103.669) scale(0.0770771,-0.0770771)"/>
<path d="M623 -26Q559 -26 530.0 6.0Q501 38 501 109Q501 131 503.5 161.0Q506 191 513.0 239.0Q520 287 532.5 361.5Q545 436 564 546L511 653Q567 689 619.0 707.5Q671 726 717 726Q794 726 794 632Q794 617 790.0 587.5Q786 558 779.0 519.0Q772 480 764.0 435.5Q756 391 747.5 346.5Q739 302 732.0 262.0Q725 222 721.0 191.5Q717 161 717 144Q717 98 724.0 70.0Q731 42 747 19Q690 -26 623 -26ZM182 -26Q118 -26 89.0 6.0Q60 38 60 109Q60 131 62.5 161.0Q65 191 72.0 239.0Q79 287 91.5 361.5Q104 436 123 546L70 653Q126 689 178.0 707.5Q230 726 276 726Q353 726 353 632Q353 617 349.0 587.5Q345 558 338.0 519.0Q331 480 323.0 435.5Q315 391 306.5 346.5Q298 302 291.0 262.0Q284 222 280.0 191.5Q276 161 276 144Q276 98 283.0 70.0Q290 42 306 19Q249 -26 182 -26ZM233 267 255 386H601L581 267Z" fill="#2F7BFF" transform="translate(211.816,103.669) scale(0.0770771,-0.0770771)"/>
<path d="M218 -25Q138 -25 99.0 15.0Q60 55 60 137Q60 176 66.5 219.5Q73 263 82.0 306.0Q91 349 97.5 388.5Q104 428 104 460Q104 489 98.5 513.5Q93 538 83 551Q124 573 168.5 586.5Q213 600 240 600Q281 600 299.5 583.5Q318 567 318 529Q318 508 312.0 471.5Q306 435 297.0 392.0Q288 349 278.5 305.5Q269 262 263.0 227.0Q257 192 257 172Q257 133 273.0 115.0Q289 97 324 97Q366 97 408.0 128.5Q450 160 475 210L490 51L435 78Q409 47 375.5 23.5Q342 0 302.5 -12.5Q263 -25 218 -25ZM562 -25Q501 -25 472.5 5.0Q444 35 444 99Q444 121 451.5 167.0Q459 213 473.0 282.0Q487 351 508 441L452 525Q498 553 533.0 569.0Q568 585 596.0 592.5Q624 600 649 600Q690 600 707.0 583.0Q724 566 724 526Q724 514 718.5 487.5Q713 461 704.5 425.5Q696 390 687.0 349.5Q678 309 669.5 267.0Q661 225 655.5 186.0Q650 147 650 115Q650 50 681 24Q624 -25 562 -25Z" fill="#2F7BFF" transform="translate(274.327,103.669) scale(0.0770771,-0.0770771)"/>
<path d="M263 -25Q190 -25 147.5 -3.5Q105 18 87.5 59.0Q70 100 70 160Q70 180 73.0 210.5Q76 241 84.0 292.0Q92 343 105.0 423.0Q118 503 139 621L83 701Q125 732 174.5 753.0Q224 774 270 774Q317 774 336.0 757.5Q355 741 355 703Q355 665 339.0 599.0Q323 533 305 452L315 447Q344 519 397.0 559.5Q450 600 515 600Q572 600 614.0 571.0Q656 542 679.0 489.0Q702 436 702 365Q702 278 670.5 206.5Q639 135 580.5 83.0Q522 31 441.5 3.0Q361 -25 263 -25ZM245 78Q299 83 346.0 104.5Q393 126 428.5 159.5Q464 193 484.0 235.5Q504 278 504 326Q504 375 483.5 401.5Q463 428 426 428Q389 428 356.5 403.5Q324 379 299.0 333.0Q274 287 259.5 222.5Q245 158 245 78Z" fill="#2F7BFF" transform="translate(332.214,103.669) scale(0.0770771,-0.0770771)"/>
</g>
  </g>
</svg>